<svg xmlns="http://www.w3.org/2000/svg" viewBox="0 0 240 40" fill="none" stroke="currentColor" stroke-width="1.4" stroke-linecap="round">
  <path d="M10 20 C 60 20, 80 8, 110 20 C 130 28, 145 28, 165 20 C 195 8, 215 20, 230 20"/>
  <path d="M120 12 C 116 6, 124 6, 120 0 C 116 6, 124 6, 120 12 Z" fill="currentColor" stroke="none"/>
  <circle cx="10" cy="20" r="2" fill="currentColor" stroke="none"/>
  <circle cx="230" cy="20" r="2" fill="currentColor" stroke="none"/>
  <path d="M120 20 l0 18 M120 38 c -6 -4 -10 -10 -10 -16 M120 38 c 6 -4 10 -10 10 -16" stroke-width="1.1"/>
</svg>
